<svg width="18" height="16" viewBox="0 0 18 16" fill="none" xmlns="http://www.w3.org/2000/svg">
<path d="M7.12571 0.176224L0.165222 7.57507C-0.0550766 7.81003 -0.0550766 8.18997 0.165222 8.42493L7.12571 15.8238C7.34601 16.0587 7.70223 16.0587 7.92253 15.8238L8.25532 15.4688C8.47562 15.2339 8.47562 14.8539 8.25532 14.619L2.81818 8.84987H17.4375C17.7469 8.84987 18 8.57991 18 8.24996V7.75004C18 7.42009 17.7469 7.15013 17.4375 7.15013L2.81818 7.15013L8.25063 1.38104C8.47093 1.14607 8.47093 0.766132 8.25063 0.531169L7.91784 0.176224C7.70223 -0.0587406 7.34601 -0.0587406 7.12571 0.176224Z" fill="#666666"/>
</svg>
