<svg width="55" height="55" viewBox="0 0 55 55" fill="none" xmlns="http://www.w3.org/2000/svg">
<g clip-path="url(#clip0_2_400)">
<path d="M29.5406 54.9989H25.7794C24.8552 54.8915 23.9246 54.8807 22.9982 54.8205C21.2261 54.7066 19.5658 54.1758 17.9249 53.5665C14.6881 52.3758 11.7446 50.665 9.17625 48.3535C6.70458 46.1258 4.59722 43.5961 3.02502 40.6334C1.79629 38.3472 0.894817 35.8996 0.347029 33.3626C0.117057 32.2772 0.132101 31.1639 0.0504284 30.0613C0.039682 29.9227 0.0966388 29.7755 -0.00222778 29.6476V25.6715C0.105236 24.7452 0.0987864 23.8124 0.174011 22.884C0.318012 21.1205 0.826318 19.4452 1.43564 17.8096C2.91 13.793 5.30702 10.1788 8.43367 7.25795C11.7412 4.13474 15.7678 1.87513 20.1569 0.679136C21.7989 0.226722 23.4668 0.107438 25.1496 0.0494085C25.3237 0.0440354 25.5075 0.105289 25.6719 -0.00109863H28.5734C28.9109 0.118184 29.2591 0.0214683 29.6008 0.0526323C32.7828 -0.0107702 35.7735 0.788745 38.6632 2.05357C42.3632 3.67409 45.5301 6.02966 48.2189 9.02677C51.457 12.6054 53.6827 16.9825 54.6667 21.7073C54.8956 22.7819 54.8816 23.8941 54.9515 24.9913C54.9633 25.1826 54.8934 25.3835 55.0031 25.5662V29.6498C54.8956 30.4181 54.8956 31.1929 54.8419 31.9645C54.6807 34.0278 54.0391 35.9621 53.2718 37.8609C52.2359 40.4067 50.8979 42.7923 49.1291 44.9115C46.7703 47.7367 44.0504 50.132 40.791 51.8965C38.4459 53.1717 35.9295 54.1025 33.319 54.6604C32.2444 54.8893 31.1493 54.8689 30.0629 54.9473C29.8888 54.9592 29.7061 54.8915 29.5406 54.9989Z" fill="#3BB46B"/>
<path d="M16.7235 24.2487C16.8535 24.3659 16.975 24.4637 17.0878 24.5786C18.9975 26.4657 20.9146 28.3462 22.8081 30.2494C23.1241 30.5664 23.2831 30.5632 23.5991 30.2494C28.3468 25.4802 33.1003 20.7161 37.8595 15.957C38.2077 15.6067 38.3829 15.6185 38.7192 15.957C39.9357 17.195 41.1812 18.406 42.4332 19.6107C42.69 19.8589 42.6814 19.9911 42.4332 20.2404C36.1229 26.5362 29.8183 32.8389 23.5195 39.1483C23.2767 39.3922 23.1445 39.4083 22.8909 39.1547C19.4714 35.7367 16.0436 32.3295 12.6077 28.933C12.4013 28.7288 12.2466 28.5923 12.5496 28.3022C13.8693 27.0427 15.1621 25.7532 16.4645 24.4712C16.5398 24.3981 16.6268 24.3336 16.7235 24.2487Z" fill="white"/>
</g>
<defs>
<clipPath id="clip0_2_400">
<rect width="55" height="55" fill="white"/>
</clipPath>
</defs>
</svg>
